<svg version="1.1" xmlns="http://www.w3.org/2000/svg" xmlns:xlink="http://www.w3.org/1999/xlink" width="518.73214" height="412.54685" viewBox="0,0,518.73214,412.54685"><g transform="translate(10.96436,25.52267)"><g data-paper-data="{&quot;isPaintingLayer&quot;:true}" fill-rule="nonzero" stroke="none" stroke-linecap="butt" stroke-linejoin="miter" stroke-miterlimit="10" stroke-dasharray="" stroke-dashoffset="0" style="mix-blend-mode: normal"><path d="M-10.96435,387.02419v-412.54685h501.92871v412.54685z" fill="#00daff" stroke-width="13"/><path d="M13.77379,69.13916c0,-20.31678 16.47001,-36.78679 36.78679,-36.78679c20.31678,0 36.78678,16.47001 36.78678,36.78679c0,20.31678 -16.47,36.78678 -36.78678,36.78678c-20.31678,0 -36.78678,-16.47 -36.78678,-36.78678z" fill="#ffffff" stroke-width="0"/><path d="M52.81283,66.13615c0,12.85348 14.11715,23.27328 31.53154,23.27328c17.41438,0 31.53153,-10.4198 31.53153,-23.27327c0,-12.85348 -14.11715,-23.27327 -31.53153,-23.27327c-17.41438,0 -31.53153,10.4198 -31.53153,23.27327z" fill="#ffffff" stroke-width="0"/><path d="M196.95697,185.50552c0,18.24364 33.94838,33.03304 75.82583,33.03304c41.87745,0 75.82583,-14.7894 75.82583,-33.03304c0,-18.24364 -33.94838,-33.03303 -75.82583,-33.03303c-41.87744,0 -75.82583,14.78939 -75.82583,33.03303z" fill="#ffffff" stroke-width="0"/><path d="M263.02304,221.54156c0,-21.56066 -44.03205,-39.03903 -98.34834,-39.03903c-54.31629,0 -98.34835,17.47837 -98.34835,39.03903c0,21.56067 44.03206,39.03904 98.34835,39.03904c54.3163,0 98.34835,-17.47838 98.34835,-39.03904z" fill="#ffffff" stroke-width="0"/><path d="M347.10712,54.87489c0,7.4633 -24.53695,13.51352 -54.8048,13.51352c-30.26786,0 -54.80481,-6.05021 -54.80481,-13.51352c0,-7.4633 24.53695,-13.51351 54.80481,-13.51351c30.26786,0 54.8048,6.05021 54.8048,13.51351z" fill="#ffffff" stroke-width="0"/><path d="M309.56958,78.89891c0,-14.09736 -19.15899,-25.52553 -42.79279,-25.52553c-23.63381,0 -42.79279,11.42817 -42.79279,25.52553c0,14.09736 19.15899,25.52553 42.79279,25.52553c23.63381,0 42.79279,-11.42817 42.79279,-25.52553z" fill="#ffffff" stroke-width="0"/><path d="M120.38039,298.86888c0,7.87794 63.52716,14.26426 141.89189,14.26426c78.36473,0 141.89189,-6.38633 141.89189,-14.26426c0,-7.87794 -63.52716,-14.26426 -141.89189,-14.26426c-78.36473,0 -141.89189,6.38633 -141.89189,14.26426z" fill="#ffffff" stroke-width="0"/><path d="M353.11313,304.87489c0,-7.04868 -60.16594,-12.76276 -134.38438,-12.76276c-74.21845,0 -134.38438,5.71408 -134.38438,12.76276c0,7.04868 60.16594,12.76276 134.38438,12.76276c74.21845,0 134.38438,-5.71408 134.38438,-12.76276z" fill="#ffffff" stroke-width="0"/><path d="M507.76778,87.90792c0,9.12182 -32.94001,16.51652 -73.57357,16.51652c-40.63356,0 -73.57357,-7.3947 -73.57357,-16.51652c0,-9.12182 32.94001,-16.51652 73.57357,-16.51652c40.63356,0 73.57357,7.3947 73.57357,16.51652z" fill="#ffffff" stroke-width="0"/></g></g></svg>