<svg version="1.1" xmlns="http://www.w3.org/2000/svg" xmlns:xlink="http://www.w3.org/1999/xlink" width="34.16667" height="34.16667" viewBox="0,0,34.16667,34.16667"><g transform="translate(-222.91667,-162.91667)"><g data-paper-data="{&quot;isPaintingLayer&quot;:true}" fill-rule="nonzero" stroke="#bf00ff" stroke-width="2.5" stroke-linejoin="miter" stroke-miterlimit="10" stroke-dasharray="" stroke-dashoffset="0" style="mix-blend-mode: normal"><path d="M224.16667,180c0,-8.74451 7.08882,-15.83333 15.83333,-15.83333c8.74451,0 15.83333,7.08882 15.83333,15.83333c0,8.74451 -7.08882,15.83333 -15.83333,15.83333c-8.74451,0 -15.83333,-7.08882 -15.83333,-15.83333z" fill="#6c0091" stroke-linecap="butt"/><path d="M227.54597,186.56295l7.9661,-12.45763l3.98305,6.61017" fill="none" stroke-linecap="round"/><path d="M233.81715,192.15617l12.79661,-19.15254l7.20339,13.55932" fill="none" stroke-linecap="round"/><path d="M238.22393,171.05448c0,-0.70206 0.56913,-1.27119 1.27119,-1.27119c0.70206,0 1.27119,0.56913 1.27119,1.27119c0,0.70206 -0.56913,1.27119 -1.27119,1.27119c-0.70206,0 -1.27119,-0.56913 -1.27119,-1.27119z" fill="#6c0091" stroke-linecap="butt"/></g></g></svg>